<svg width="20" height="20" viewBox="0 0 20 20" fill="none" xmlns="http://www.w3.org/2000/svg">
<mask id="mask0_2353_3013" style="mask-type:alpha" maskUnits="userSpaceOnUse" x="0" y="0" width="20" height="20">
<rect width="20" height="20" fill="#D9D9D9"/>
</mask>
<g mask="url(#mask0_2353_3013)">
<path d="M18.3307 4.99919V14.9992C18.3307 15.4575 18.1675 15.8499 17.8411 16.1763C17.5148 16.5027 17.1224 16.6659 16.6641 16.6659H3.33073C2.8724 16.6659 2.48003 16.5027 2.15365 16.1763C1.82726 15.8499 1.66406 15.4575 1.66406 14.9992V4.99919C1.66406 4.54085 1.82726 4.14849 2.15365 3.8221C2.48003 3.49571 2.8724 3.33252 3.33073 3.33252H16.6641C17.1224 3.33252 17.5148 3.49571 17.8411 3.8221C18.1675 4.14849 18.3307 4.54085 18.3307 4.99919ZM3.33073 6.66585H16.6641V4.99919H3.33073V6.66585ZM3.33073 9.99919V14.9992H16.6641V9.99919H3.33073Z" fill="#4264FB"/>
</g>
</svg>
