<svg width="28" height="28" viewBox="0 0 28 28" fill="none" xmlns="http://www.w3.org/2000/svg">
<rect width="28" height="28" rx="14" fill="#B1DDD2"/>
<mask id="mask0_2361_2569" style="mask-type:alpha" maskUnits="userSpaceOnUse" x="4" y="4" width="20" height="20">
<rect x="4" y="4" width="20" height="20" fill="#D9D9D9"/>
</mask>
<g mask="url(#mask0_2361_2569)">
<path d="M8.9987 20.6668C8.54036 20.6668 8.148 20.5036 7.82161 20.1772C7.49523 19.8509 7.33203 19.4585 7.33203 19.0002C7.33203 18.5418 7.49523 18.1495 7.82161 17.8231C8.148 17.4967 8.54036 17.3335 8.9987 17.3335C9.45703 17.3335 9.84939 17.4967 10.1758 17.8231C10.5022 18.1495 10.6654 18.5418 10.6654 19.0002C10.6654 19.4585 10.5022 19.8509 10.1758 20.1772C9.84939 20.5036 9.45703 20.6668 8.9987 20.6668ZM13.9987 20.6668C13.5404 20.6668 13.148 20.5036 12.8216 20.1772C12.4952 19.8509 12.332 19.4585 12.332 19.0002C12.332 18.5418 12.4952 18.1495 12.8216 17.8231C13.148 17.4967 13.5404 17.3335 13.9987 17.3335C14.457 17.3335 14.8494 17.4967 15.1758 17.8231C15.5022 18.1495 15.6654 18.5418 15.6654 19.0002C15.6654 19.4585 15.5022 19.8509 15.1758 20.1772C14.8494 20.5036 14.457 20.6668 13.9987 20.6668ZM18.9987 20.6668C18.5404 20.6668 18.148 20.5036 17.8216 20.1772C17.4952 19.8509 17.332 19.4585 17.332 19.0002C17.332 18.5418 17.4952 18.1495 17.8216 17.8231C18.148 17.4967 18.5404 17.3335 18.9987 17.3335C19.457 17.3335 19.8494 17.4967 20.1758 17.8231C20.5022 18.1495 20.6654 18.5418 20.6654 19.0002C20.6654 19.4585 20.5022 19.8509 20.1758 20.1772C19.8494 20.5036 19.457 20.6668 18.9987 20.6668ZM8.9987 15.6668C8.54036 15.6668 8.148 15.5036 7.82161 15.1772C7.49523 14.8509 7.33203 14.4585 7.33203 14.0002C7.33203 13.5418 7.49523 13.1495 7.82161 12.8231C8.148 12.4967 8.54036 12.3335 8.9987 12.3335C9.45703 12.3335 9.84939 12.4967 10.1758 12.8231C10.5022 13.1495 10.6654 13.5418 10.6654 14.0002C10.6654 14.4585 10.5022 14.8509 10.1758 15.1772C9.84939 15.5036 9.45703 15.6668 8.9987 15.6668ZM13.9987 15.6668C13.5404 15.6668 13.148 15.5036 12.8216 15.1772C12.4952 14.8509 12.332 14.4585 12.332 14.0002C12.332 13.5418 12.4952 13.1495 12.8216 12.8231C13.148 12.4967 13.5404 12.3335 13.9987 12.3335C14.457 12.3335 14.8494 12.4967 15.1758 12.8231C15.5022 13.1495 15.6654 13.5418 15.6654 14.0002C15.6654 14.4585 15.5022 14.8509 15.1758 15.1772C14.8494 15.5036 14.457 15.6668 13.9987 15.6668ZM18.9987 15.6668C18.5404 15.6668 18.148 15.5036 17.8216 15.1772C17.4952 14.8509 17.332 14.4585 17.332 14.0002C17.332 13.5418 17.4952 13.1495 17.8216 12.8231C18.148 12.4967 18.5404 12.3335 18.9987 12.3335C19.457 12.3335 19.8494 12.4967 20.1758 12.8231C20.5022 13.1495 20.6654 13.5418 20.6654 14.0002C20.6654 14.4585 20.5022 14.8509 20.1758 15.1772C19.8494 15.5036 19.457 15.6668 18.9987 15.6668ZM8.9987 10.6668C8.54036 10.6668 8.148 10.5036 7.82161 10.1772C7.49523 9.85086 7.33203 9.4585 7.33203 9.00016C7.33203 8.54183 7.49523 8.14947 7.82161 7.82308C8.148 7.49669 8.54036 7.3335 8.9987 7.3335C9.45703 7.3335 9.84939 7.49669 10.1758 7.82308C10.5022 8.14947 10.6654 8.54183 10.6654 9.00016C10.6654 9.4585 10.5022 9.85086 10.1758 10.1772C9.84939 10.5036 9.45703 10.6668 8.9987 10.6668ZM13.9987 10.6668C13.5404 10.6668 13.148 10.5036 12.8216 10.1772C12.4952 9.85086 12.332 9.4585 12.332 9.00016C12.332 8.54183 12.4952 8.14947 12.8216 7.82308C13.148 7.49669 13.5404 7.3335 13.9987 7.3335C14.457 7.3335 14.8494 7.49669 15.1758 7.82308C15.5022 8.14947 15.6654 8.54183 15.6654 9.00016C15.6654 9.4585 15.5022 9.85086 15.1758 10.1772C14.8494 10.5036 14.457 10.6668 13.9987 10.6668ZM18.9987 10.6668C18.5404 10.6668 18.148 10.5036 17.8216 10.1772C17.4952 9.85086 17.332 9.4585 17.332 9.00016C17.332 8.54183 17.4952 8.14947 17.8216 7.82308C18.148 7.49669 18.5404 7.3335 18.9987 7.3335C19.457 7.3335 19.8494 7.49669 20.1758 7.82308C20.5022 8.14947 20.6654 8.54183 20.6654 9.00016C20.6654 9.4585 20.5022 9.85086 20.1758 10.1772C19.8494 10.5036 19.457 10.6668 18.9987 10.6668Z" fill="#26AD8D"/>
</g>
</svg>
