<svg width="28" height="28" viewBox="0 0 28 28" fill="none" xmlns="http://www.w3.org/2000/svg">
<rect width="28" height="28" rx="14" fill="#FFF1DD"/>
<mask id="mask0_2361_2572" style="mask-type:alpha" maskUnits="userSpaceOnUse" x="4" y="4" width="20" height="20">
<rect x="4" y="4" width="20" height="20" fill="#D9D9D9"/>
</mask>
<g mask="url(#mask0_2361_2572)">
<path d="M13.1849 21.5V19.7083C12.4488 19.5417 11.8134 19.2222 11.2786 18.75C10.7439 18.2778 10.3516 17.6111 10.1016 16.75L11.6432 16.125C11.8516 16.7917 12.1606 17.2986 12.5703 17.6458C12.98 17.9931 13.5182 18.1667 14.1849 18.1667C14.7543 18.1667 15.237 18.0382 15.6328 17.7812C16.0286 17.5243 16.2266 17.125 16.2266 16.5833C16.2266 16.0972 16.0738 15.7118 15.7682 15.4271C15.4627 15.1424 14.7543 14.8194 13.6432 14.4583C12.4488 14.0833 11.6293 13.6354 11.1849 13.1146C10.7405 12.5938 10.5182 11.9583 10.5182 11.2083C10.5182 10.3056 10.8099 9.60417 11.3932 9.10417C11.9766 8.60417 12.5738 8.31944 13.1849 8.25V6.5H14.8516V8.25C15.546 8.36111 16.1189 8.61458 16.5703 9.01042C17.0217 9.40625 17.3516 9.88889 17.5599 10.4583L16.0182 11.125C15.8516 10.6806 15.6155 10.3472 15.3099 10.125C15.0043 9.90278 14.5877 9.79167 14.0599 9.79167C13.4488 9.79167 12.9835 9.92708 12.6641 10.1979C12.3446 10.4688 12.1849 10.8056 12.1849 11.2083C12.1849 11.6667 12.3932 12.0278 12.8099 12.2917C13.2266 12.5556 13.9488 12.8333 14.9766 13.125C15.9349 13.4028 16.6606 13.8438 17.1536 14.4479C17.6467 15.0521 17.8932 15.75 17.8932 16.5417C17.8932 17.5278 17.6016 18.2778 17.0182 18.7917C16.4349 19.3056 15.7127 19.625 14.8516 19.75V21.5H13.1849Z" fill="#F1AC44"/>
</g>
</svg>
