<svg width="24" height="24" viewBox="0 0 24 24" fill="none" xmlns="http://www.w3.org/2000/svg">
<mask id="mask0_741_189" style="mask-type:alpha" maskUnits="userSpaceOnUse" x="0" y="0" width="24" height="24">
<rect width="24" height="24" fill="#D9D9D9"/>
</mask>
<g mask="url(#mask0_741_189)">
<path d="M11 17.3606H13V13.3569H17V11.355H13V7.35131H11V11.355H7V13.3569H11V17.3606ZM12 22.3652C10.6167 22.3652 9.31667 22.1023 8.1 21.5765C6.88333 21.0513 5.825 20.3383 4.925 19.4375C4.025 18.5367 3.31267 17.4773 2.788 16.2595C2.26267 15.0418 2 13.7406 2 12.3559C2 10.9713 2.26267 9.67012 2.788 8.45233C3.31267 7.23453 4.025 6.17522 4.925 5.27439C5.825 4.37355 6.88333 3.66023 8.1 3.13441C9.31667 2.60926 10.6167 2.34668 12 2.34668C13.3833 2.34668 14.6833 2.60926 15.9 3.13441C17.1167 3.66023 18.175 4.37355 19.075 5.27439C19.975 6.17522 20.6873 7.23453 21.212 8.45233C21.7373 9.67012 22 10.9713 22 12.3559C22 13.7406 21.7373 15.0418 21.212 16.2595C20.6873 17.4773 19.975 18.5367 19.075 19.4375C18.175 20.3383 17.1167 21.0513 15.9 21.5765C14.6833 22.1023 13.3833 22.3652 12 22.3652ZM12 20.3633C14.2333 20.3633 16.125 19.5876 17.675 18.0362C19.225 16.4848 20 14.5913 20 12.3559C20 10.1205 19.225 8.22712 17.675 6.67568C16.125 5.12425 14.2333 4.34853 12 4.34853C9.76667 4.34853 7.875 5.12425 6.325 6.67568C4.775 8.22712 4 10.1205 4 12.3559C4 14.5913 4.775 16.4848 6.325 18.0362C7.875 19.5876 9.76667 20.3633 12 20.3633Z" fill="#1C1B1F"/>
</g>
</svg>
