<svg width="32" height="32" viewBox="0 0 32 32" fill="none" xmlns="http://www.w3.org/2000/svg">
<mask id="mask0_669_373" style="mask-type:alpha" maskUnits="userSpaceOnUse" x="0" y="0" width="32" height="32">
<rect width="32" height="32" fill="#D9D9D9"/>
</mask>
<g mask="url(#mask0_669_373)">
<path d="M15.9999 24C14.7555 24 13.5666 24.1944 12.4333 24.5833C11.2999 24.9722 10.2666 25.5555 9.33325 26.3333V26.6666H22.6666V26.3333C21.7333 25.5555 20.6999 24.9722 19.5666 24.5833C18.4333 24.1944 17.2444 24 15.9999 24ZM15.9999 21.3333C17.5333 21.3333 18.9666 21.5666 20.2999 22.0333C21.6333 22.5 22.8666 23.1555 23.9999 24V5.33329H7.99992V24C9.13325 23.1555 10.3666 22.5 11.6999 22.0333C13.0333 21.5666 14.4666 21.3333 15.9999 21.3333ZM15.9999 16C15.4444 16 14.9721 15.8055 14.5833 15.4166C14.1944 15.0277 13.9999 14.5555 13.9999 14C13.9999 13.4444 14.1944 12.9722 14.5833 12.5833C14.9721 12.1944 15.4444 12 15.9999 12C16.5555 12 17.0277 12.1944 17.4166 12.5833C17.8055 12.9722 17.9999 13.4444 17.9999 14C17.9999 14.5555 17.8055 15.0277 17.4166 15.4166C17.0277 15.8055 16.5555 16 15.9999 16ZM7.99992 29.3333C7.26659 29.3333 6.63881 29.0722 6.11659 28.55C5.59436 28.0277 5.33325 27.4 5.33325 26.6666V5.33329C5.33325 4.59996 5.59436 3.97218 6.11659 3.44996C6.63881 2.92774 7.26659 2.66663 7.99992 2.66663H23.9999C24.7333 2.66663 25.361 2.92774 25.8833 3.44996C26.4055 3.97218 26.6666 4.59996 26.6666 5.33329V26.6666C26.6666 27.4 26.4055 28.0277 25.8833 28.55C25.361 29.0722 24.7333 29.3333 23.9999 29.3333H7.99992ZM15.9999 18.6666C17.2888 18.6666 18.3888 18.2111 19.2999 17.3C20.211 16.3888 20.6666 15.2888 20.6666 14C20.6666 12.7111 20.211 11.6111 19.2999 10.7C18.3888 9.78885 17.2888 9.33329 15.9999 9.33329C14.711 9.33329 13.611 9.78885 12.6999 10.7C11.7888 11.6111 11.3333 12.7111 11.3333 14C11.3333 15.2888 11.7888 16.3888 12.6999 17.3C13.611 18.2111 14.711 18.6666 15.9999 18.6666Z" fill="white"/>
</g>
</svg>
