<svg width="32" height="32" viewBox="0 0 32 32" fill="none" xmlns="http://www.w3.org/2000/svg">
<mask id="mask0_669_364" style="mask-type:alpha" maskUnits="userSpaceOnUse" x="0" y="0" width="32" height="32">
<rect width="32" height="32" fill="#D9D9D9"/>
</mask>
<g mask="url(#mask0_669_364)">
<path d="M15.9999 16C16.7333 16 17.361 15.7388 17.8833 15.2166C18.4055 14.6944 18.6666 14.0666 18.6666 13.3333C18.6666 12.6 18.4055 11.9722 17.8833 11.45C17.361 10.9277 16.7333 10.6666 15.9999 10.6666C15.2666 10.6666 14.6388 10.9277 14.1166 11.45C13.5944 11.9722 13.3333 12.6 13.3333 13.3333C13.3333 14.0666 13.5944 14.6944 14.1166 15.2166C14.6388 15.7388 15.2666 16 15.9999 16ZM15.9999 25.8C18.711 23.3111 20.7221 21.05 22.0333 19.0166C23.3444 16.9833 23.9999 15.1777 23.9999 13.6C23.9999 11.1777 23.2277 9.1944 21.6833 7.64996C20.1388 6.10551 18.2444 5.33329 15.9999 5.33329C13.7555 5.33329 11.861 6.10551 10.3166 7.64996C8.77214 9.1944 7.99992 11.1777 7.99992 13.6C7.99992 15.1777 8.65547 16.9833 9.96659 19.0166C11.2777 21.05 13.2888 23.3111 15.9999 25.8ZM15.9999 29.3333C12.4221 26.2888 9.74992 23.4611 7.98325 20.85C6.21659 18.2388 5.33325 15.8222 5.33325 13.6C5.33325 10.2666 6.40547 7.61107 8.54992 5.63329C10.6944 3.65551 13.1777 2.66663 15.9999 2.66663C18.8221 2.66663 21.3055 3.65551 23.4499 5.63329C25.5944 7.61107 26.6666 10.2666 26.6666 13.6C26.6666 15.8222 25.7833 18.2388 24.0166 20.85C22.2499 23.4611 19.5777 26.2888 15.9999 29.3333Z" fill="white"/>
</g>
</svg>
