<svg width="32" height="32" viewBox="0 0 32 32" fill="none" xmlns="http://www.w3.org/2000/svg">
<mask id="mask0_543_157" style="mask-type:alpha" maskUnits="userSpaceOnUse" x="0" y="0" width="32" height="32">
<rect width="32" height="32" fill="#D9D9D9"/>
</mask>
<g mask="url(#mask0_543_157)">
<path d="M1.33325 26.6667V22.9334C1.33325 22.1778 1.52792 21.4832 1.91725 20.8494C2.3057 20.2165 2.82214 19.7334 3.46659 19.4C4.84436 18.7112 6.24436 18.1943 7.66659 17.8494C9.08881 17.5054 10.5333 17.3334 11.9999 17.3334C13.4666 17.3334 14.911 17.5054 16.3333 17.8494C17.7555 18.1943 19.1555 18.7112 20.5333 19.4C21.1777 19.7334 21.6941 20.2165 22.0826 20.8494C22.4719 21.4832 22.6666 22.1778 22.6666 22.9334V26.6667H1.33325ZM25.3333 26.6667V22.6667C25.3333 21.6889 25.0613 20.7498 24.5173 19.8494C23.9724 18.9498 23.1999 18.1778 22.1999 17.5334C23.3333 17.6667 24.3999 17.8943 25.3999 18.216C26.3999 18.5387 27.3333 18.9334 28.1999 19.4C28.9999 19.8445 29.611 20.3387 30.0333 20.8827C30.4555 21.4276 30.6666 22.0223 30.6666 22.6667V26.6667H25.3333ZM11.9999 16C10.5333 16 9.2777 15.4778 8.23325 14.4334C7.18881 13.3889 6.66659 12.1334 6.66659 10.6667C6.66659 9.20004 7.18881 7.94449 8.23325 6.90004C9.2777 5.8556 10.5333 5.33337 11.9999 5.33337C13.4666 5.33337 14.7221 5.8556 15.7666 6.90004C16.811 7.94449 17.3333 9.20004 17.3333 10.6667C17.3333 12.1334 16.811 13.3889 15.7666 14.4334C14.7221 15.4778 13.4666 16 11.9999 16ZM25.3333 10.6667C25.3333 12.1334 24.811 13.3889 23.7666 14.4334C22.7221 15.4778 21.4666 16 19.9999 16C19.7555 16 19.4444 15.9725 19.0666 15.9174C18.6888 15.8614 18.3777 15.8 18.1333 15.7334C18.7333 15.0223 19.1941 14.2334 19.5159 13.3667C19.8386 12.5 19.9999 11.6 19.9999 10.6667C19.9999 9.73337 19.8386 8.83337 19.5159 7.96671C19.1941 7.10004 18.7333 6.31115 18.1333 5.60004C18.4444 5.48893 18.7555 5.41649 19.0666 5.38271C19.3777 5.34982 19.6888 5.33337 19.9999 5.33337C21.4666 5.33337 22.7221 5.8556 23.7666 6.90004C24.811 7.94449 25.3333 9.20004 25.3333 10.6667ZM3.99992 24H19.9999V22.9334C19.9999 22.6889 19.939 22.4667 19.8173 22.2667C19.6946 22.0667 19.5333 21.9112 19.3333 21.8C18.1333 21.2 16.9221 20.7498 15.6999 20.4494C14.4777 20.1498 13.2444 20 11.9999 20C10.7555 20 9.52214 20.1498 8.29992 20.4494C7.0777 20.7498 5.86659 21.2 4.66659 21.8C4.46659 21.9112 4.3057 22.0667 4.18392 22.2667C4.06125 22.4667 3.99992 22.6889 3.99992 22.9334V24ZM11.9999 13.3334C12.7333 13.3334 13.3613 13.072 13.8839 12.5494C14.4057 12.0276 14.6666 11.4 14.6666 10.6667C14.6666 9.93337 14.4057 9.30582 13.8839 8.78404C13.3613 8.26137 12.7333 8.00004 11.9999 8.00004C11.2666 8.00004 10.639 8.26137 10.1173 8.78404C9.59459 9.30582 9.33325 9.93337 9.33325 10.6667C9.33325 11.4 9.59459 12.0276 10.1173 12.5494C10.639 13.072 11.2666 13.3334 11.9999 13.3334Z" fill="white"/>
</g>
</svg>
