<svg width="20" height="20" viewBox="0 0 20 20" fill="none" xmlns="http://www.w3.org/2000/svg">
<mask id="mask0_598_500" style="mask-type:alpha" maskUnits="userSpaceOnUse" x="0" y="0" width="20" height="20">
<rect width="20" height="20" fill="#D9D9D9"/>
</mask>
<g mask="url(#mask0_598_500)">
<path d="M4.16667 15.8333H5.33333L12.5208 8.64579L11.3542 7.47913L4.16667 14.6666V15.8333ZM16.0833 7.43746L12.5417 3.93746L13.7083 2.77079C14.0278 2.45135 14.4201 2.29163 14.8854 2.29163C15.3507 2.29163 15.7431 2.45135 16.0625 2.77079L17.2292 3.93746C17.5486 4.2569 17.7153 4.64232 17.7292 5.09371C17.7431 5.5451 17.5903 5.93051 17.2708 6.24996L16.0833 7.43746ZM14.875 8.66663L6.04167 17.5H2.5V13.9583L11.3333 5.12496L14.875 8.66663Z" fill="#FEFEFE"/>
</g>
</svg>
