<svg width="32" height="32" viewBox="0 0 32 32" fill="none" xmlns="http://www.w3.org/2000/svg">
<mask id="mask0_543_126" style="mask-type:alpha" maskUnits="userSpaceOnUse" x="0" y="0" width="32" height="32">
<rect width="32" height="32" fill="#D9D9D9"/>
</mask>
<g mask="url(#mask0_543_126)">
<path d="M5.33325 28V15.5L2.93325 17.3334L1.33325 15.2L5.33325 12.1334V8.00004H7.99992V10.1L15.9999 4.00004L30.6666 15.2L29.0666 17.3L26.6666 15.5V28H5.33325ZM7.99992 25.3334H14.6666V20H17.3333V25.3334H23.9999V13.4667L15.9999 7.36671L7.99992 13.4667V25.3334ZM5.33325 6.66671C5.33325 5.5556 5.72214 4.61115 6.49992 3.83337C7.2777 3.0556 8.22214 2.66671 9.33325 2.66671C9.71103 2.66671 10.0279 2.53871 10.2839 2.28271C10.539 2.0276 10.6666 1.71115 10.6666 1.33337H13.3333C13.3333 2.44449 12.9444 3.38893 12.1666 4.16671C11.3888 4.94448 10.4444 5.33337 9.33325 5.33337C8.95547 5.33337 8.63859 5.46093 8.38259 5.71604C8.12747 5.97204 7.99992 6.28893 7.99992 6.66671H5.33325Z" fill="white"/>
</g>
</svg>
