<svg width="32" height="32" viewBox="0 0 32 32" fill="none" xmlns="http://www.w3.org/2000/svg">
<mask id="mask0_669_370" style="mask-type:alpha" maskUnits="userSpaceOnUse" x="0" y="0" width="32" height="32">
<rect width="32" height="32" fill="#D9D9D9"/>
</mask>
<g mask="url(#mask0_669_370)">
<path d="M16.0001 22.6666C16.3779 22.6666 16.6945 22.5389 16.9501 22.2833C17.2056 22.0278 17.3334 21.7111 17.3334 21.3333C17.3334 20.9555 17.2056 20.6389 16.9501 20.3833C16.6945 20.1278 16.3779 20 16.0001 20C15.6223 20 15.3056 20.1278 15.0501 20.3833C14.7945 20.6389 14.6667 20.9555 14.6667 21.3333C14.6667 21.7111 14.7945 22.0278 15.0501 22.2833C15.3056 22.5389 15.6223 22.6666 16.0001 22.6666ZM16.0001 17.3333C16.3779 17.3333 16.6945 17.2055 16.9501 16.95C17.2056 16.6944 17.3334 16.3778 17.3334 16C17.3334 15.6222 17.2056 15.3055 16.9501 15.05C16.6945 14.7944 16.3779 14.6666 16.0001 14.6666C15.6223 14.6666 15.3056 14.7944 15.0501 15.05C14.7945 15.3055 14.6667 15.6222 14.6667 16C14.6667 16.3778 14.7945 16.6944 15.0501 16.95C15.3056 17.2055 15.6223 17.3333 16.0001 17.3333ZM16.0001 12C16.3779 12 16.6945 11.8722 16.9501 11.6166C17.2056 11.3611 17.3334 11.0444 17.3334 10.6666C17.3334 10.2889 17.2056 9.9722 16.9501 9.71665C16.6945 9.46109 16.3779 9.33331 16.0001 9.33331C15.6223 9.33331 15.3056 9.46109 15.0501 9.71665C14.7945 9.9722 14.6667 10.2889 14.6667 10.6666C14.6667 11.0444 14.7945 11.3611 15.0501 11.6166C15.3056 11.8722 15.6223 12 16.0001 12ZM26.6667 26.6666H5.33341C4.60008 26.6666 3.9723 26.4055 3.45008 25.8833C2.92786 25.3611 2.66675 24.7333 2.66675 24V18.6666C3.40008 18.6666 4.02786 18.4055 4.55008 17.8833C5.0723 17.3611 5.33341 16.7333 5.33341 16C5.33341 15.2666 5.0723 14.6389 4.55008 14.1166C4.02786 13.5944 3.40008 13.3333 2.66675 13.3333V7.99998C2.66675 7.26665 2.92786 6.63887 3.45008 6.11665C3.9723 5.59442 4.60008 5.33331 5.33341 5.33331H26.6667C27.4001 5.33331 28.0279 5.59442 28.5501 6.11665C29.0723 6.63887 29.3334 7.26665 29.3334 7.99998V13.3333C28.6001 13.3333 27.9723 13.5944 27.4501 14.1166C26.9279 14.6389 26.6667 15.2666 26.6667 16C26.6667 16.7333 26.9279 17.3611 27.4501 17.8833C27.9723 18.4055 28.6001 18.6666 29.3334 18.6666V24C29.3334 24.7333 29.0723 25.3611 28.5501 25.8833C28.0279 26.4055 27.4001 26.6666 26.6667 26.6666ZM26.6667 24V20.6C25.8445 20.1111 25.1945 19.4611 24.7167 18.65C24.239 17.8389 24.0001 16.9555 24.0001 16C24.0001 15.0444 24.239 14.1611 24.7167 13.35C25.1945 12.5389 25.8445 11.8889 26.6667 11.4V7.99998H5.33341V11.4C6.15564 11.8889 6.80564 12.5389 7.28341 13.35C7.76119 14.1611 8.00008 15.0444 8.00008 16C8.00008 16.9555 7.76119 17.8389 7.28341 18.65C6.80564 19.4611 6.15564 20.1111 5.33341 20.6V24H26.6667Z" fill="white"/>
</g>
</svg>
