<svg width="32" height="32" viewBox="0 0 32 32" fill="none" xmlns="http://www.w3.org/2000/svg">
<mask id="mask0_669_387" style="mask-type:alpha" maskUnits="userSpaceOnUse" x="0" y="0" width="32" height="32">
<rect width="32" height="32" fill="#D9D9D9"/>
</mask>
<g mask="url(#mask0_669_387)">
<path d="M12.3332 29.3334L11.7999 25.0667C11.511 24.9556 11.2387 24.8222 10.9832 24.6667C10.7276 24.5111 10.4776 24.3445 10.2332 24.1667L6.26652 25.8334L2.59985 19.5L6.03319 16.9C6.01096 16.7445 5.99985 16.5945 5.99985 16.45V15.55C5.99985 15.4056 6.01096 15.2556 6.03319 15.1L2.59985 12.5L6.26652 6.16669L10.2332 7.83335C10.4776 7.65558 10.7332 7.48891 10.9999 7.33335C11.2665 7.1778 11.5332 7.04446 11.7999 6.93335L12.3332 2.66669H19.6665L20.1999 6.93335C20.4887 7.04446 20.761 7.1778 21.0165 7.33335C21.2721 7.48891 21.5221 7.65558 21.7665 7.83335L25.7332 6.16669L29.3999 12.5L25.9665 15.1C25.9887 15.2556 25.9999 15.4056 25.9999 15.55V16.45C25.9999 16.5945 25.9776 16.7445 25.9332 16.9L29.3665 19.5L25.6999 25.8334L21.7665 24.1667C21.5221 24.3445 21.2665 24.5111 20.9999 24.6667C20.7332 24.8222 20.4665 24.9556 20.1999 25.0667L19.6665 29.3334H12.3332ZM16.0665 20.6667C17.3554 20.6667 18.4554 20.2111 19.3665 19.3C20.2776 18.3889 20.7332 17.2889 20.7332 16C20.7332 14.7111 20.2776 13.6111 19.3665 12.7C18.4554 11.7889 17.3554 11.3334 16.0665 11.3334C14.7554 11.3334 13.6499 11.7889 12.7499 12.7C11.8499 13.6111 11.3999 14.7111 11.3999 16C11.3999 17.2889 11.8499 18.3889 12.7499 19.3C13.6499 20.2111 14.7554 20.6667 16.0665 20.6667ZM16.0665 18C15.511 18 15.0387 17.8056 14.6499 17.4167C14.261 17.0278 14.0665 16.5556 14.0665 16C14.0665 15.4445 14.261 14.9722 14.6499 14.5834C15.0387 14.1945 15.511 14 16.0665 14C16.6221 14 17.0943 14.1945 17.4832 14.5834C17.8721 14.9722 18.0665 15.4445 18.0665 16C18.0665 16.5556 17.8721 17.0278 17.4832 17.4167C17.0943 17.8056 16.6221 18 16.0665 18ZM14.6665 26.6667H17.2999L17.7665 23.1334C18.4554 22.9556 19.0943 22.6945 19.6832 22.35C20.2721 22.0056 20.811 21.5889 21.2999 21.1L24.5999 22.4667L25.8999 20.2L23.0332 18.0334C23.1443 17.7222 23.2221 17.3945 23.2665 17.05C23.311 16.7056 23.3332 16.3556 23.3332 16C23.3332 15.6445 23.311 15.2945 23.2665 14.95C23.2221 14.6056 23.1443 14.2778 23.0332 13.9667L25.8999 11.8L24.5999 9.53335L21.2999 10.9334C20.811 10.4222 20.2721 9.99446 19.6832 9.65002C19.0943 9.30558 18.4554 9.04446 17.7665 8.86669L17.3332 5.33335H14.6999L14.2332 8.86669C13.5443 9.04446 12.9054 9.30558 12.3165 9.65002C11.7276 9.99446 11.1887 10.4111 10.6999 10.9L7.39985 9.53335L6.09985 11.8L8.96652 13.9334C8.85541 14.2667 8.77763 14.6 8.73319 14.9334C8.68874 15.2667 8.66652 15.6222 8.66652 16C8.66652 16.3556 8.68874 16.7 8.73319 17.0334C8.77763 17.3667 8.85541 17.7 8.96652 18.0334L6.09985 20.2L7.39985 22.4667L10.6999 21.0667C11.1887 21.5778 11.7276 22.0056 12.3165 22.35C12.9054 22.6945 13.5443 22.9556 14.2332 23.1334L14.6665 26.6667Z" fill="white"/>
</g>
</svg>
