<svg width="20" height="20" viewBox="0 0 20 20" fill="none" xmlns="http://www.w3.org/2000/svg">
<mask id="mask0_2893_3068" style="mask-type:alpha" maskUnits="userSpaceOnUse" x="0" y="0" width="20" height="20">
<rect width="20" height="20" fill="#D9D9D9"/>
</mask>
<g mask="url(#mask0_2893_3068)">
<path d="M10.0013 14.1693C10.2374 14.1693 10.4353 14.0894 10.5951 13.9297C10.7548 13.77 10.8346 13.572 10.8346 13.3359C10.8346 13.0998 10.7548 12.9019 10.5951 12.7422C10.4353 12.5825 10.2374 12.5026 10.0013 12.5026C9.76519 12.5026 9.56727 12.5825 9.40755 12.7422C9.24783 12.9019 9.16797 13.0998 9.16797 13.3359C9.16797 13.572 9.24783 13.77 9.40755 13.9297C9.56727 14.0894 9.76519 14.1693 10.0013 14.1693ZM10.0013 10.8359C10.2374 10.8359 10.4353 10.7561 10.5951 10.5964C10.7548 10.4366 10.8346 10.2387 10.8346 10.0026C10.8346 9.76649 10.7548 9.56858 10.5951 9.40885C10.4353 9.24913 10.2374 9.16927 10.0013 9.16927C9.76519 9.16927 9.56727 9.24913 9.40755 9.40885C9.24783 9.56858 9.16797 9.76649 9.16797 10.0026C9.16797 10.2387 9.24783 10.4366 9.40755 10.5964C9.56727 10.7561 9.76519 10.8359 10.0013 10.8359ZM10.0013 7.5026C10.2374 7.5026 10.4353 7.42274 10.5951 7.26302C10.7548 7.1033 10.8346 6.90538 10.8346 6.66927C10.8346 6.43316 10.7548 6.23524 10.5951 6.07552C10.4353 5.9158 10.2374 5.83594 10.0013 5.83594C9.76519 5.83594 9.56727 5.9158 9.40755 6.07552C9.24783 6.23524 9.16797 6.43316 9.16797 6.66927C9.16797 6.90538 9.24783 7.1033 9.40755 7.26302C9.56727 7.42274 9.76519 7.5026 10.0013 7.5026ZM16.668 16.6693H3.33464C2.8763 16.6693 2.48394 16.5061 2.15755 16.1797C1.83116 15.8533 1.66797 15.4609 1.66797 15.0026V11.6693C2.1263 11.6693 2.51866 11.5061 2.84505 11.1797C3.17144 10.8533 3.33464 10.4609 3.33464 10.0026C3.33464 9.54427 3.17144 9.15191 2.84505 8.82552C2.51866 8.49913 2.1263 8.33594 1.66797 8.33594V5.0026C1.66797 4.54427 1.83116 4.15191 2.15755 3.82552C2.48394 3.49913 2.8763 3.33594 3.33464 3.33594H16.668C17.1263 3.33594 17.5187 3.49913 17.8451 3.82552C18.1714 4.15191 18.3346 4.54427 18.3346 5.0026V8.33594C17.8763 8.33594 17.4839 8.49913 17.1576 8.82552C16.8312 9.15191 16.668 9.54427 16.668 10.0026C16.668 10.4609 16.8312 10.8533 17.1576 11.1797C17.4839 11.5061 17.8763 11.6693 18.3346 11.6693V15.0026C18.3346 15.4609 18.1714 15.8533 17.8451 16.1797C17.5187 16.5061 17.1263 16.6693 16.668 16.6693ZM16.668 15.0026V12.8776C16.1541 12.572 15.7478 12.1658 15.4492 11.6589C15.1506 11.1519 15.0013 10.5998 15.0013 10.0026C15.0013 9.40538 15.1506 8.8533 15.4492 8.34635C15.7478 7.83941 16.1541 7.43316 16.668 7.1276V5.0026H3.33464V7.1276C3.84852 7.43316 4.25477 7.83941 4.55339 8.34635C4.852 8.8533 5.0013 9.40538 5.0013 10.0026C5.0013 10.5998 4.852 11.1519 4.55339 11.6589C4.25477 12.1658 3.84852 12.572 3.33464 12.8776V15.0026H16.668Z" fill="#565A60"/>
</g>
</svg>
