<svg width="20" height="20" viewBox="0 0 20 20" fill="none" xmlns="http://www.w3.org/2000/svg">
<mask id="mask0_2893_3050" style="mask-type:alpha" maskUnits="userSpaceOnUse" x="0" y="0" width="20" height="20">
<rect width="20" height="20" fill="#D9D9D9"/>
</mask>
<g mask="url(#mask0_2893_3050)">
<path d="M3.33203 17.5026V9.6901L1.83203 10.8359L0.832031 9.5026L3.33203 7.58594V5.0026H4.9987V6.3151L9.9987 2.5026L19.1654 9.5026L18.1654 10.8151L16.6654 9.6901V17.5026H3.33203ZM4.9987 15.8359H9.16537V12.5026H10.832V15.8359H14.9987V8.41927L9.9987 4.60677L4.9987 8.41927V15.8359ZM3.33203 4.16927C3.33203 3.47483 3.57509 2.88455 4.0612 2.39844C4.54731 1.91233 5.13759 1.66927 5.83203 1.66927C6.06814 1.66927 6.2662 1.58927 6.4262 1.42927C6.58564 1.26983 6.66536 1.07205 6.66536 0.835938H8.33203C8.33203 1.53038 8.08898 2.12066 7.60286 2.60677C7.11675 3.09288 6.52648 3.33594 5.83203 3.33594C5.59592 3.33594 5.39786 3.41566 5.23786 3.5751C5.07842 3.7351 4.9987 3.93316 4.9987 4.16927H3.33203Z" fill="#565A60"/>
</g>
</svg>
