<svg width="16" height="16" viewBox="0 0 16 16" fill="currentColor" xmlns="http://www.w3.org/2000/svg">
<path d="M7.9987 4.66536C8.36536 4.66536 8.66536 4.96536 8.66536 5.33203V7.9987C8.66536 8.36536 8.36536 8.66536 7.9987 8.66536C7.63203 8.66536 7.33203 8.36536 7.33203 7.9987V5.33203C7.33203 4.96536 7.63203 4.66536 7.9987 4.66536ZM7.99203 1.33203C4.31203 1.33203 1.33203 4.3187 1.33203 7.9987C1.33203 11.6787 4.31203 14.6654 7.99203 14.6654C11.6787 14.6654 14.6654 11.6787 14.6654 7.9987C14.6654 4.3187 11.6787 1.33203 7.99203 1.33203ZM7.9987 13.332C5.05203 13.332 2.66536 10.9454 2.66536 7.9987C2.66536 5.05203 5.05203 2.66536 7.9987 2.66536C10.9454 2.66536 13.332 5.05203 13.332 7.9987C13.332 10.9454 10.9454 13.332 7.9987 13.332ZM8.66536 11.332H7.33203V9.9987H8.66536V11.332Z" fill="currentColor"/>
</svg>