<svg width="20" height="20" viewBox="0 0 20 20" fill="none" xmlns="http://www.w3.org/2000/svg">
<mask id="mask0_2893_3056" style="mask-type:alpha" maskUnits="userSpaceOnUse" x="0" y="0" width="20" height="20">
<rect width="20" height="20" fill="#D9D9D9"/>
</mask>
<g mask="url(#mask0_2893_3056)">
<path d="M0.832031 16.6693V14.3359C0.832031 13.8637 0.953698 13.4295 1.19703 13.0334C1.43981 12.6379 1.76259 12.3359 2.16536 12.1276C3.02648 11.697 3.90148 11.374 4.79036 11.1584C5.67925 10.9434 6.58203 10.8359 7.4987 10.8359C8.41536 10.8359 9.31814 10.9434 10.207 11.1584C11.0959 11.374 11.9709 11.697 12.832 12.1276C13.2348 12.3359 13.5576 12.6379 13.8004 13.0334C14.0437 13.4295 14.1654 13.8637 14.1654 14.3359V16.6693H0.832031ZM15.832 16.6693V14.1693C15.832 13.5582 15.662 12.9712 15.322 12.4084C14.9815 11.8462 14.4987 11.3637 13.8737 10.9609C14.582 11.0443 15.2487 11.1865 15.8737 11.3876C16.4987 11.5893 17.082 11.8359 17.6237 12.1276C18.1237 12.4054 18.5056 12.7143 18.7695 13.0543C19.0334 13.3948 19.1654 13.7665 19.1654 14.1693V16.6693H15.832ZM7.4987 10.0026C6.58203 10.0026 5.79731 9.67622 5.14453 9.02344C4.49175 8.37066 4.16536 7.58594 4.16536 6.66927C4.16536 5.7526 4.49175 4.96788 5.14453 4.3151C5.79731 3.66233 6.58203 3.33594 7.4987 3.33594C8.41536 3.33594 9.20009 3.66233 9.85287 4.3151C10.5056 4.96788 10.832 5.7526 10.832 6.66927C10.832 7.58594 10.5056 8.37066 9.85287 9.02344C9.20009 9.67622 8.41536 10.0026 7.4987 10.0026ZM15.832 6.66927C15.832 7.58594 15.5056 8.37066 14.8529 9.02344C14.2001 9.67622 13.4154 10.0026 12.4987 10.0026C12.3459 10.0026 12.1515 9.98538 11.9154 9.95094C11.6793 9.91594 11.4848 9.8776 11.332 9.83594C11.707 9.39149 11.9951 8.89844 12.1962 8.35677C12.3979 7.8151 12.4987 7.2526 12.4987 6.66927C12.4987 6.08594 12.3979 5.52344 12.1962 4.98177C11.9951 4.4401 11.707 3.94705 11.332 3.5026C11.5265 3.43316 11.7209 3.38788 11.9154 3.36677C12.1098 3.34622 12.3043 3.33594 12.4987 3.33594C13.4154 3.33594 14.2001 3.66233 14.8529 4.3151C15.5056 4.96788 15.832 5.7526 15.832 6.66927ZM2.4987 15.0026H12.4987V14.3359C12.4987 14.1832 12.4606 14.0443 12.3845 13.9193C12.3079 13.7943 12.207 13.697 12.082 13.6276C11.332 13.2526 10.5751 12.9712 9.8112 12.7834C9.04731 12.5962 8.27648 12.5026 7.4987 12.5026C6.72092 12.5026 5.95009 12.5962 5.1862 12.7834C4.42231 12.9712 3.66536 13.2526 2.91536 13.6276C2.79036 13.697 2.68981 13.7943 2.6137 13.9193C2.53703 14.0443 2.4987 14.1832 2.4987 14.3359V15.0026ZM7.4987 8.33594C7.95703 8.33594 8.34953 8.1726 8.6762 7.84594C9.00231 7.51983 9.16537 7.1276 9.16537 6.66927C9.16537 6.21094 9.00231 5.81872 8.6762 5.4926C8.34953 5.16594 7.95703 5.0026 7.4987 5.0026C7.04036 5.0026 6.64814 5.16594 6.32203 5.4926C5.99536 5.81872 5.83203 6.21094 5.83203 6.66927C5.83203 7.1276 5.99536 7.51983 6.32203 7.84594C6.64814 8.1726 7.04036 8.33594 7.4987 8.33594Z" fill="#565A60"/>
</g>
</svg>
