<svg width="22" height="16" viewBox="0 0 22 16" fill="none" xmlns="http://www.w3.org/2000/svg">
<path d="M0 1.33333C0 0.979711 0.140476 0.640573 0.390525 0.390525C0.640573 0.140476 0.979711 0 1.33333 0H20C20.3536 0 20.6928 0.140476 20.9428 0.390525C21.1929 0.640573 21.3333 0.979711 21.3333 1.33333C21.3333 1.68696 21.1929 2.02609 20.9428 2.27614C20.6928 2.52619 20.3536 2.66667 20 2.66667H1.33333C0.979711 2.66667 0.640573 2.52619 0.390525 2.27614C0.140476 2.02609 0 1.68696 0 1.33333ZM0 8C0 7.64638 0.140476 7.30724 0.390525 7.05719C0.640573 6.80714 0.979711 6.66667 1.33333 6.66667H20C20.3536 6.66667 20.6928 6.80714 20.9428 7.05719C21.1929 7.30724 21.3333 7.64638 21.3333 8C21.3333 8.35362 21.1929 8.69276 20.9428 8.94281C20.6928 9.19286 20.3536 9.33333 20 9.33333H1.33333C0.979711 9.33333 0.640573 9.19286 0.390525 8.94281C0.140476 8.69276 0 8.35362 0 8ZM0 14.6667C0 14.313 0.140476 13.9739 0.390525 13.7239C0.640573 13.4738 0.979711 13.3333 1.33333 13.3333H20C20.3536 13.3333 20.6928 13.4738 20.9428 13.7239C21.1929 13.9739 21.3333 14.313 21.3333 14.6667C21.3333 15.0203 21.1929 15.3594 20.9428 15.6095C20.6928 15.8595 20.3536 16 20 16H1.33333C0.979711 16 0.640573 15.8595 0.390525 15.6095C0.140476 15.3594 0 15.0203 0 14.6667Z" fill="#929AA7"/>
</svg>
