<svg width="20" height="20" viewBox="0 0 20 20" fill="none" xmlns="http://www.w3.org/2000/svg">
<mask id="mask0_2893_3065" style="mask-type:alpha" maskUnits="userSpaceOnUse" x="0" y="0" width="20" height="20">
<rect width="20" height="20" fill="#D9D9D9"/>
</mask>
<g mask="url(#mask0_2893_3065)">
<path d="M9.9987 9.9974C10.457 9.9974 10.8494 9.8342 11.1758 9.50781C11.5022 9.18142 11.6654 8.78906 11.6654 8.33073C11.6654 7.8724 11.5022 7.48003 11.1758 7.15365C10.8494 6.82726 10.457 6.66406 9.9987 6.66406C9.54036 6.66406 9.148 6.82726 8.82161 7.15365C8.49523 7.48003 8.33203 7.8724 8.33203 8.33073C8.33203 8.78906 8.49523 9.18142 8.82161 9.50781C9.148 9.8342 9.54036 9.9974 9.9987 9.9974ZM9.9987 16.1224C11.6931 14.5668 12.9501 13.1536 13.7695 11.8828C14.589 10.612 14.9987 9.48351 14.9987 8.4974C14.9987 6.98351 14.5161 5.74392 13.5508 4.77865C12.5855 3.81337 11.4015 3.33073 9.9987 3.33073C8.59592 3.33073 7.41189 3.81337 6.44661 4.77865C5.48134 5.74392 4.9987 6.98351 4.9987 8.4974C4.9987 9.48351 5.40842 10.612 6.22786 11.8828C7.04731 13.1536 8.30425 14.5668 9.9987 16.1224ZM9.9987 18.3307C7.76259 16.428 6.09245 14.6606 4.98828 13.0286C3.88411 11.3967 3.33203 9.88628 3.33203 8.4974C3.33203 6.41406 4.00217 4.75434 5.34245 3.51823C6.68273 2.28212 8.23481 1.66406 9.9987 1.66406C11.7626 1.66406 13.3147 2.28212 14.6549 3.51823C15.9952 4.75434 16.6654 6.41406 16.6654 8.4974C16.6654 9.88628 16.1133 11.3967 15.0091 13.0286C13.9049 14.6606 12.2348 16.428 9.9987 18.3307Z" fill="#565A60"/>
</g>
</svg>
