<svg width="20" height="20" viewBox="0 0 20 20" fill="none" xmlns="http://www.w3.org/2000/svg">
<mask id="mask0_2893_3076" style="mask-type:alpha" maskUnits="userSpaceOnUse" x="0" y="0" width="20" height="20">
<rect width="20" height="20" fill="#D9D9D9"/>
</mask>
<g mask="url(#mask0_2893_3076)">
<path d="M9.9987 14.9974C9.22092 14.9974 8.47787 15.1189 7.76953 15.362C7.0612 15.605 6.41536 15.9696 5.83203 16.4557V16.6641H14.1654V16.4557C13.582 15.9696 12.9362 15.605 12.2279 15.362C11.5195 15.1189 10.7765 14.9974 9.9987 14.9974ZM9.9987 13.3307C10.957 13.3307 11.8529 13.4766 12.6862 13.7682C13.5195 14.0599 14.2904 14.4696 14.9987 14.9974V3.33073H4.9987V14.9974C5.70703 14.4696 6.47786 14.0599 7.3112 13.7682C8.14453 13.4766 9.04036 13.3307 9.9987 13.3307ZM9.9987 9.9974C9.65148 9.9974 9.35634 9.87587 9.11328 9.63281C8.87023 9.38976 8.7487 9.09462 8.7487 8.7474C8.7487 8.40017 8.87023 8.10503 9.11328 7.86198C9.35634 7.61892 9.65148 7.4974 9.9987 7.4974C10.3459 7.4974 10.6411 7.61892 10.8841 7.86198C11.1272 8.10503 11.2487 8.40017 11.2487 8.7474C11.2487 9.09462 11.1272 9.38976 10.8841 9.63281C10.6411 9.87587 10.3459 9.9974 9.9987 9.9974ZM4.9987 18.3307C4.54036 18.3307 4.148 18.1675 3.82161 17.8411C3.49523 17.5148 3.33203 17.1224 3.33203 16.6641V3.33073C3.33203 2.8724 3.49523 2.48003 3.82161 2.15365C4.148 1.82726 4.54036 1.66406 4.9987 1.66406H14.9987C15.457 1.66406 15.8494 1.82726 16.1758 2.15365C16.5022 2.48003 16.6654 2.8724 16.6654 3.33073V16.6641C16.6654 17.1224 16.5022 17.5148 16.1758 17.8411C15.8494 18.1675 15.457 18.3307 14.9987 18.3307H4.9987ZM9.9987 11.6641C10.8043 11.6641 11.4918 11.3793 12.0612 10.8099C12.6306 10.2405 12.9154 9.55295 12.9154 8.7474C12.9154 7.94184 12.6306 7.25434 12.0612 6.6849C11.4918 6.11545 10.8043 5.83073 9.9987 5.83073C9.19314 5.83073 8.50564 6.11545 7.9362 6.6849C7.36675 7.25434 7.08203 7.94184 7.08203 8.7474C7.08203 9.55295 7.36675 10.2405 7.9362 10.8099C8.50564 11.3793 9.19314 11.6641 9.9987 11.6641Z" fill="#565A60"/>
</g>
</svg>
