<svg width="20" height="20" viewBox="0 0 20 20" fill="none" xmlns="http://www.w3.org/2000/svg">
<mask id="mask0_2893_3082" style="mask-type:alpha" maskUnits="userSpaceOnUse" x="0" y="0" width="20" height="20">
<rect width="20" height="20" fill="#D9D9D9"/>
</mask>
<g mask="url(#mask0_2893_3082)">
<path d="M7.70833 18.3307L7.375 15.6641C7.19444 15.5946 7.02431 15.5113 6.86458 15.4141C6.70486 15.3168 6.54861 15.2127 6.39583 15.1016L3.91667 16.1432L1.625 12.1849L3.77083 10.5599C3.75694 10.4627 3.75 10.3689 3.75 10.2786V9.71615C3.75 9.62587 3.75694 9.53212 3.77083 9.4349L1.625 7.8099L3.91667 3.85156L6.39583 4.89323C6.54861 4.78212 6.70833 4.67795 6.875 4.58073C7.04167 4.48351 7.20833 4.40017 7.375 4.33073L7.70833 1.66406H12.2917L12.625 4.33073C12.8056 4.40017 12.9757 4.48351 13.1354 4.58073C13.2951 4.67795 13.4514 4.78212 13.6042 4.89323L16.0833 3.85156L18.375 7.8099L16.2292 9.4349C16.2431 9.53212 16.25 9.62587 16.25 9.71615V10.2786C16.25 10.3689 16.2361 10.4627 16.2083 10.5599L18.3542 12.1849L16.0625 16.1432L13.6042 15.1016C13.4514 15.2127 13.2917 15.3168 13.125 15.4141C12.9583 15.5113 12.7917 15.5946 12.625 15.6641L12.2917 18.3307H7.70833ZM10.0417 12.9141C10.8472 12.9141 11.5347 12.6293 12.1042 12.0599C12.6736 11.4905 12.9583 10.803 12.9583 9.9974C12.9583 9.19184 12.6736 8.50434 12.1042 7.9349C11.5347 7.36545 10.8472 7.08073 10.0417 7.08073C9.22222 7.08073 8.53125 7.36545 7.96875 7.9349C7.40625 8.50434 7.125 9.19184 7.125 9.9974C7.125 10.803 7.40625 11.4905 7.96875 12.0599C8.53125 12.6293 9.22222 12.9141 10.0417 12.9141ZM10.0417 11.2474C9.69444 11.2474 9.39931 11.1259 9.15625 10.8828C8.91319 10.6398 8.79167 10.3446 8.79167 9.9974C8.79167 9.65017 8.91319 9.35503 9.15625 9.11198C9.39931 8.86892 9.69444 8.7474 10.0417 8.7474C10.3889 8.7474 10.684 8.86892 10.9271 9.11198C11.1701 9.35503 11.2917 9.65017 11.2917 9.9974C11.2917 10.3446 11.1701 10.6398 10.9271 10.8828C10.684 11.1259 10.3889 11.2474 10.0417 11.2474ZM9.16667 16.6641H10.8125L11.1042 14.4557C11.5347 14.3446 11.934 14.1814 12.3021 13.9661C12.6701 13.7509 13.0069 13.4905 13.3125 13.1849L15.375 14.0391L16.1875 12.6224L14.3958 11.2682C14.4653 11.0738 14.5139 10.8689 14.5417 10.6536C14.5694 10.4384 14.5833 10.2196 14.5833 9.9974C14.5833 9.77517 14.5694 9.55642 14.5417 9.34115C14.5139 9.12587 14.4653 8.92101 14.3958 8.72656L16.1875 7.3724L15.375 5.95573L13.3125 6.83073C13.0069 6.51128 12.6701 6.24392 12.3021 6.02865C11.934 5.81337 11.5347 5.65017 11.1042 5.53906L10.8333 3.33073H9.1875L8.89583 5.53906C8.46528 5.65017 8.06597 5.81337 7.69792 6.02865C7.32986 6.24392 6.99306 6.50434 6.6875 6.8099L4.625 5.95573L3.8125 7.3724L5.60417 8.70573C5.53472 8.91406 5.48611 9.1224 5.45833 9.33073C5.43056 9.53906 5.41667 9.76128 5.41667 9.9974C5.41667 10.2196 5.43056 10.4349 5.45833 10.6432C5.48611 10.8516 5.53472 11.0599 5.60417 11.2682L3.8125 12.6224L4.625 14.0391L6.6875 13.1641C6.99306 13.4835 7.32986 13.7509 7.69792 13.9661C8.06597 14.1814 8.46528 14.3446 8.89583 14.4557L9.16667 16.6641Z" fill="#565A60"/>
</g>
</svg>
