<svg width="24" height="24" viewBox="0 0 24 24" fill="none" xmlns="http://www.w3.org/2000/svg">
<g clip-path="url(#clip0_3164_3145)">
<rect width="24" height="24" rx="12" fill="white"/>
<path fill-rule="evenodd" clip-rule="evenodd" d="M22.8188 6.80624C22.0854 5.2986 21.0668 3.95395 19.8037 2.89453H19.6407C17.0737 5.13562 13.0399 7.33595 10.0247 8.80284C7.74292 9.90301 6.35757 12.6331 6.60204 15.4446C6.72428 16.9115 7.3762 18.2562 8.43559 19.2748C9.49498 20.2528 10.8803 20.864 12.3472 20.9047C12.5509 20.9455 12.7139 20.9455 12.8769 20.9455C15.2809 20.9455 16.6255 20.049 17.7256 19.2341C18.4183 18.7044 19.3147 17.8487 20.1296 16.993C20.4556 16.6263 20.9038 16.1781 21.4335 15.6891C22.0854 15.0371 23.3078 13.8555 23.5115 13.4887C23.6338 13.2443 23.7967 13.0405 24.0005 12.8776C24.0005 12.5923 24.0005 12.3071 24.0005 11.9811C24.0005 10.1475 23.593 8.35463 22.8188 6.80624Z" fill="#00A07C"/>
<path fill-rule="evenodd" clip-rule="evenodd" d="M21.3508 18.1324C20.4951 19.1104 19.4765 20.0068 18.743 20.5772C17.4799 21.5144 15.7686 22.6146 12.8757 22.6146C12.6719 22.6146 12.4682 22.6146 12.2645 22.6146C8.47511 22.4109 5.21546 19.5178 4.8895 15.5654C4.64502 12.3056 6.19334 8.76062 9.29002 7.25298C11.5718 6.15281 15.6464 4.03396 18.2948 1.83362C18.2541 1.79287 18.2133 1.71138 18.1319 1.67063C16.339 0.611212 14.261 0 12.02 0C11.9792 0 11.9385 0 11.9385 0C5.33769 0.040747 0 5.37862 0 11.9796C0 12.0611 0 12.1426 0 12.2241C0.122237 18.7436 5.45992 24 12.02 24C16.828 24 20.9433 21.1477 22.8584 17.073C22.9398 16.9508 22.9398 16.7878 22.9806 16.6248C23.0213 16.584 23.0621 16.5025 23.0621 16.4211C22.4102 17.073 21.7582 17.725 21.3508 18.1324Z" fill="#00A07C"/>
</g>
<defs>
<clipPath id="clip0_3164_3145">
<rect width="24" height="24" rx="12" fill="white"/>
</clipPath>
</defs>
</svg>
