<svg width="48" height="48" viewBox="0 0 48 48" fill="none" xmlns="http://www.w3.org/2000/svg">
  <g clip-path="url(#clip0_1861_1648)">
    <rect width="48" height="48" rx="24" fill="white" />
    <path fill-rule="evenodd" clip-rule="evenodd" d="M45.6377 13.6105C44.1708 10.5952 42.1335 7.90595 39.6073 5.78711H39.2814C34.1474 10.2693 26.0797 14.6699 20.0494 17.6037C15.4858 19.8041 12.7151 25.2642 13.2041 30.8873C13.4486 33.8211 14.7524 36.5103 16.8712 38.5477C18.99 40.5036 21.7607 41.726 24.6944 41.8075C25.1018 41.889 25.4278 41.889 25.7538 41.889C30.5618 41.889 33.251 40.0961 35.4512 38.4662C36.8366 37.4068 38.6294 35.6954 40.2592 33.984C40.9112 33.2506 41.8076 32.3542 42.867 31.3762C44.1708 30.0723 46.6156 27.709 47.023 26.9755C47.2675 26.4866 47.5935 26.0791 48.0009 25.7532C48.0009 25.1827 48.0009 24.6122 48.0009 23.9603C48.0009 20.2931 47.186 16.7073 45.6377 13.6105Z" fill="#00A07C" />
    <path fill-rule="evenodd" clip-rule="evenodd" d="M42.7015 36.2649C40.9902 38.2207 38.9529 40.0136 37.4861 41.1545C34.9598 43.0289 31.5372 45.2292 25.7513 45.2292C25.3439 45.2292 24.9364 45.2292 24.5289 45.2292C16.9502 44.8217 10.4309 39.0357 9.77899 31.1307C9.29004 24.6112 12.3867 17.5212 18.58 14.506C23.1436 12.3056 31.2927 8.06792 36.5897 3.66724C36.5082 3.58574 36.4267 3.42276 36.2637 3.34127C32.6781 1.22242 28.522 0 24.04 0C23.9585 0 23.877 0 23.877 0C10.6754 0.081494 0 10.7572 0 23.9593C0 24.1223 0 24.2852 0 24.4482C0.244474 37.4873 10.9198 48 24.04 48C33.656 48 41.8866 42.2954 45.7167 34.146C45.8797 33.9015 45.8797 33.5756 45.9612 33.2496C46.0427 33.1681 46.1242 33.0051 46.1242 32.8421C44.8203 34.146 43.5164 35.4499 42.7015 36.2649Z" fill="#00A07C" />
  </g>
  <defs>
    <clipPath id="clip0_1861_1648">
      <rect width="48" height="48" rx="24" fill="white" />
    </clipPath>
  </defs>
</svg>
