<svg width="20" height="20" viewBox="0 0 20 20" fill="none" xmlns="http://www.w3.org/2000/svg">
<mask id="mask0_2353_3007" style="mask-type:alpha" maskUnits="userSpaceOnUse" x="0" y="0" width="20" height="20">
<rect width="20" height="20" fill="#D9D9D9"/>
</mask>
<g mask="url(#mask0_2353_3007)">
<path d="M8.64323 12.5V8.75H6.76823V7.5H11.7682V8.75H9.89323V12.5H8.64323ZM1.66406 12.5V8.33333C1.66406 8.09722 1.74392 7.89931 1.90365 7.73958C2.06337 7.57986 2.26128 7.5 2.4974 7.5H4.9974C5.23351 7.5 5.43142 7.57986 5.59115 7.73958C5.75087 7.89931 5.83073 8.09722 5.83073 8.33333V12.5H4.58073V11.25H2.91406V12.5H1.66406ZM2.91406 10H4.58073V8.75H2.91406V10ZM12.9141 12.5V8.33333C12.9141 8.09722 12.9939 7.89931 13.1536 7.73958C13.3134 7.57986 13.5113 7.5 13.7474 7.5H17.4974C17.7335 7.5 17.9314 7.57986 18.0911 7.73958C18.2509 7.89931 18.3307 8.09722 18.3307 8.33333V12.5H17.0807V8.75H16.2474V11.6667H14.9974V8.75H14.1641V12.5H12.9141Z" fill="#AD5A9B"/>
</g>
</svg>
