<svg width="20" height="20" viewBox="0 0 20 20" fill="none" xmlns="http://www.w3.org/2000/svg">
<mask id="mask0_2353_3019" style="mask-type:alpha" maskUnits="userSpaceOnUse" x="0" y="0" width="20" height="20">
<rect width="20" height="20" fill="#D9D9D9"/>
</mask>
<g mask="url(#mask0_2353_3019)">
<path d="M9.1849 17.5V15.7083C8.44878 15.5417 7.81337 15.2222 7.27865 14.75C6.74392 14.2778 6.35156 13.6111 6.10156 12.75L7.64323 12.125C7.85156 12.7917 8.16059 13.2986 8.57031 13.6458C8.98003 13.9931 9.51823 14.1667 10.1849 14.1667C10.7543 14.1667 11.237 14.0382 11.6328 13.7812C12.0286 13.5243 12.2266 13.125 12.2266 12.5833C12.2266 12.0972 12.0738 11.7118 11.7682 11.4271C11.4627 11.1424 10.7543 10.8194 9.64323 10.4583C8.44878 10.0833 7.62934 9.63542 7.1849 9.11458C6.74045 8.59375 6.51823 7.95833 6.51823 7.20833C6.51823 6.30556 6.8099 5.60417 7.39323 5.10417C7.97656 4.60417 8.57378 4.31944 9.1849 4.25V2.5H10.8516V4.25C11.546 4.36111 12.1189 4.61458 12.5703 5.01042C13.0217 5.40625 13.3516 5.88889 13.5599 6.45833L12.0182 7.125C11.8516 6.68056 11.6155 6.34722 11.3099 6.125C11.0043 5.90278 10.5877 5.79167 10.0599 5.79167C9.44878 5.79167 8.98351 5.92708 8.66406 6.19792C8.34462 6.46875 8.1849 6.80556 8.1849 7.20833C8.1849 7.66667 8.39323 8.02778 8.8099 8.29167C9.22656 8.55556 9.94878 8.83333 10.9766 9.125C11.9349 9.40278 12.6606 9.84375 13.1536 10.4479C13.6467 11.0521 13.8932 11.75 13.8932 12.5417C13.8932 13.5278 13.6016 14.2778 13.0182 14.7917C12.4349 15.3056 11.7127 15.625 10.8516 15.75V17.5H9.1849Z" fill="#F1AC44"/>
</g>
</svg>
