<svg width="28" height="28" viewBox="0 0 28 28" fill="none" xmlns="http://www.w3.org/2000/svg">
<rect width="28" height="28" rx="14" fill="#EFD9EA"/>
<mask id="mask0_2361_2570" style="mask-type:alpha" maskUnits="userSpaceOnUse" x="4" y="4" width="20" height="20">
<rect x="4" y="4" width="20" height="20" fill="#D9D9D9"/>
</mask>
<g mask="url(#mask0_2361_2570)">
<path d="M12.6432 16.5V12.75H10.7682V11.5H15.7682V12.75H13.8932V16.5H12.6432ZM5.66406 16.5V12.3333C5.66406 12.0972 5.74392 11.8993 5.90365 11.7396C6.06337 11.5799 6.26128 11.5 6.4974 11.5H8.9974C9.23351 11.5 9.43142 11.5799 9.59115 11.7396C9.75087 11.8993 9.83073 12.0972 9.83073 12.3333V16.5H8.58073V15.25H6.91406V16.5H5.66406ZM6.91406 14H8.58073V12.75H6.91406V14ZM16.9141 16.5V12.3333C16.9141 12.0972 16.9939 11.8993 17.1536 11.7396C17.3134 11.5799 17.5113 11.5 17.7474 11.5H21.4974C21.7335 11.5 21.9314 11.5799 22.0911 11.7396C22.2509 11.8993 22.3307 12.0972 22.3307 12.3333V16.5H21.0807V12.75H20.2474V15.6667H18.9974V12.75H18.1641V16.5H16.9141Z" fill="#AD5A9B"/>
</g>
</svg>
