<svg width="28" height="28" viewBox="0 0 28 28" fill="none" xmlns="http://www.w3.org/2000/svg">
<rect width="28" height="28" rx="14" fill="#D0D9FF"/>
<mask id="mask0_2361_2571" style="mask-type:alpha" maskUnits="userSpaceOnUse" x="4" y="4" width="20" height="20">
<rect x="4" y="4" width="20" height="20" fill="#D9D9D9"/>
</mask>
<g mask="url(#mask0_2361_2571)">
<path d="M22.3307 8.99919V18.9992C22.3307 19.4575 22.1675 19.8499 21.8411 20.1763C21.5148 20.5027 21.1224 20.6659 20.6641 20.6659H7.33073C6.8724 20.6659 6.48003 20.5027 6.15365 20.1763C5.82726 19.8499 5.66406 19.4575 5.66406 18.9992V8.99919C5.66406 8.54085 5.82726 8.14849 6.15365 7.8221C6.48003 7.49571 6.8724 7.33252 7.33073 7.33252H20.6641C21.1224 7.33252 21.5148 7.49571 21.8411 7.8221C22.1675 8.14849 22.3307 8.54085 22.3307 8.99919ZM7.33073 10.6659H20.6641V8.99919H7.33073V10.6659ZM7.33073 13.9992V18.9992H20.6641V13.9992H7.33073Z" fill="#4264FB"/>
</g>
</svg>
