<svg width="20" height="20" viewBox="0 0 20 20" fill="none" xmlns="http://www.w3.org/2000/svg">
<mask id="mask0_2353_3001" style="mask-type:alpha" maskUnits="userSpaceOnUse" x="0" y="0" width="20" height="20">
<rect width="20" height="20" fill="#D9D9D9"/>
</mask>
<g mask="url(#mask0_2353_3001)">
<path d="M4.9987 16.6668C4.54036 16.6668 4.148 16.5036 3.82161 16.1772C3.49523 15.8509 3.33203 15.4585 3.33203 15.0002C3.33203 14.5418 3.49523 14.1495 3.82161 13.8231C4.148 13.4967 4.54036 13.3335 4.9987 13.3335C5.45703 13.3335 5.84939 13.4967 6.17578 13.8231C6.50217 14.1495 6.66536 14.5418 6.66536 15.0002C6.66536 15.4585 6.50217 15.8509 6.17578 16.1772C5.84939 16.5036 5.45703 16.6668 4.9987 16.6668ZM9.9987 16.6668C9.54036 16.6668 9.148 16.5036 8.82161 16.1772C8.49523 15.8509 8.33203 15.4585 8.33203 15.0002C8.33203 14.5418 8.49523 14.1495 8.82161 13.8231C9.148 13.4967 9.54036 13.3335 9.9987 13.3335C10.457 13.3335 10.8494 13.4967 11.1758 13.8231C11.5022 14.1495 11.6654 14.5418 11.6654 15.0002C11.6654 15.4585 11.5022 15.8509 11.1758 16.1772C10.8494 16.5036 10.457 16.6668 9.9987 16.6668ZM14.9987 16.6668C14.5404 16.6668 14.148 16.5036 13.8216 16.1772C13.4952 15.8509 13.332 15.4585 13.332 15.0002C13.332 14.5418 13.4952 14.1495 13.8216 13.8231C14.148 13.4967 14.5404 13.3335 14.9987 13.3335C15.457 13.3335 15.8494 13.4967 16.1758 13.8231C16.5022 14.1495 16.6654 14.5418 16.6654 15.0002C16.6654 15.4585 16.5022 15.8509 16.1758 16.1772C15.8494 16.5036 15.457 16.6668 14.9987 16.6668ZM4.9987 11.6668C4.54036 11.6668 4.148 11.5036 3.82161 11.1772C3.49523 10.8509 3.33203 10.4585 3.33203 10.0002C3.33203 9.54183 3.49523 9.14947 3.82161 8.82308C4.148 8.49669 4.54036 8.3335 4.9987 8.3335C5.45703 8.3335 5.84939 8.49669 6.17578 8.82308C6.50217 9.14947 6.66536 9.54183 6.66536 10.0002C6.66536 10.4585 6.50217 10.8509 6.17578 11.1772C5.84939 11.5036 5.45703 11.6668 4.9987 11.6668ZM9.9987 11.6668C9.54036 11.6668 9.148 11.5036 8.82161 11.1772C8.49523 10.8509 8.33203 10.4585 8.33203 10.0002C8.33203 9.54183 8.49523 9.14947 8.82161 8.82308C9.148 8.49669 9.54036 8.3335 9.9987 8.3335C10.457 8.3335 10.8494 8.49669 11.1758 8.82308C11.5022 9.14947 11.6654 9.54183 11.6654 10.0002C11.6654 10.4585 11.5022 10.8509 11.1758 11.1772C10.8494 11.5036 10.457 11.6668 9.9987 11.6668ZM14.9987 11.6668C14.5404 11.6668 14.148 11.5036 13.8216 11.1772C13.4952 10.8509 13.332 10.4585 13.332 10.0002C13.332 9.54183 13.4952 9.14947 13.8216 8.82308C14.148 8.49669 14.5404 8.3335 14.9987 8.3335C15.457 8.3335 15.8494 8.49669 16.1758 8.82308C16.5022 9.14947 16.6654 9.54183 16.6654 10.0002C16.6654 10.4585 16.5022 10.8509 16.1758 11.1772C15.8494 11.5036 15.457 11.6668 14.9987 11.6668ZM4.9987 6.66683C4.54036 6.66683 4.148 6.50363 3.82161 6.17725C3.49523 5.85086 3.33203 5.4585 3.33203 5.00016C3.33203 4.54183 3.49523 4.14947 3.82161 3.82308C4.148 3.49669 4.54036 3.3335 4.9987 3.3335C5.45703 3.3335 5.84939 3.49669 6.17578 3.82308C6.50217 4.14947 6.66536 4.54183 6.66536 5.00016C6.66536 5.4585 6.50217 5.85086 6.17578 6.17725C5.84939 6.50363 5.45703 6.66683 4.9987 6.66683ZM9.9987 6.66683C9.54036 6.66683 9.148 6.50363 8.82161 6.17725C8.49523 5.85086 8.33203 5.4585 8.33203 5.00016C8.33203 4.54183 8.49523 4.14947 8.82161 3.82308C9.148 3.49669 9.54036 3.3335 9.9987 3.3335C10.457 3.3335 10.8494 3.49669 11.1758 3.82308C11.5022 4.14947 11.6654 4.54183 11.6654 5.00016C11.6654 5.4585 11.5022 5.85086 11.1758 6.17725C10.8494 6.50363 10.457 6.66683 9.9987 6.66683ZM14.9987 6.66683C14.5404 6.66683 14.148 6.50363 13.8216 6.17725C13.4952 5.85086 13.332 5.4585 13.332 5.00016C13.332 4.54183 13.4952 4.14947 13.8216 3.82308C14.148 3.49669 14.5404 3.3335 14.9987 3.3335C15.457 3.3335 15.8494 3.49669 16.1758 3.82308C16.5022 4.14947 16.6654 4.54183 16.6654 5.00016C16.6654 5.4585 16.5022 5.85086 16.1758 6.17725C15.8494 6.50363 15.457 6.66683 14.9987 6.66683Z" fill="#26AD8D"/>
</g>
</svg>
