<svg width="24" height="24" viewBox="0 0 24 24" fill="none" xmlns="http://www.w3.org/2000/svg">
<mask id="mask0_818_514" style="mask-type:alpha" maskUnits="userSpaceOnUse" x="0" y="0" width="24" height="24">
<rect width="24" height="24" fill="#D9D9D9"/>
</mask>
<g mask="url(#mask0_818_514)">
<path d="M10.375 15V10.5H8.125V9H14.125V10.5H11.875V15H10.375ZM2 15V10C2 9.71667 2.09583 9.47917 2.2875 9.2875C2.47917 9.09583 2.71667 9 3 9H6C6.28333 9 6.52083 9.09583 6.7125 9.2875C6.90417 9.47917 7 9.71667 7 10V15H5.5V13.5H3.5V15H2ZM3.5 12H5.5V10.5H3.5V12ZM15.5 15V10C15.5 9.71667 15.5958 9.47917 15.7875 9.2875C15.9792 9.09583 16.2167 9 16.5 9H21C21.2833 9 21.5208 9.09583 21.7125 9.2875C21.9042 9.47917 22 9.71667 22 10V15H20.5V10.5H19.5V14H18V10.5H17V15H15.5Z" fill="#AD5A9B"/>
</g>
</svg>
