<svg width="40" height="40" viewBox="0 0 40 40" fill="none" xmlns="http://www.w3.org/2000/svg">
<mask id="mask0_598_923" style="mask-type:alpha" maskUnits="userSpaceOnUse" x="0" y="0" width="40" height="40">
<rect width="40" height="40" fill="#D9D9D9"/>
</mask>
<g mask="url(#mask0_598_923)">
<path d="M14 27.1667L20 21.1667L26 27.1667L27.1667 26L21.1667 20L27.1667 14L26 12.8333L20 18.8333L14 12.8333L12.8333 14L18.8333 20L12.8333 26L14 27.1667ZM20 35C17.9167 35 15.9656 34.6044 14.1467 33.8133C12.3267 33.0211 10.7433 31.9511 9.39667 30.6033C8.04889 29.2567 6.97889 27.6733 6.18667 25.8533C5.39556 24.0344 5 22.0833 5 20C5 17.9167 5.39556 15.965 6.18667 14.145C6.97889 12.3261 8.04889 10.7428 9.39667 9.395C10.7433 8.04833 12.3267 6.97889 14.1467 6.18667C15.9656 5.39556 17.9167 5 20 5C22.0833 5 24.035 5.39556 25.855 6.18667C27.6739 6.97889 29.2572 8.04833 30.605 9.395C31.9517 10.7428 33.0211 12.3261 33.8133 14.145C34.6044 15.965 35 17.9167 35 20C35 22.0833 34.6044 24.0344 33.8133 25.8533C33.0211 27.6733 31.9517 29.2567 30.605 30.6033C29.2572 31.9511 27.6739 33.0211 25.855 33.8133C24.035 34.6044 22.0833 35 20 35ZM20 33.3333C23.7222 33.3333 26.875 32.0417 29.4583 29.4583C32.0417 26.875 33.3333 23.7222 33.3333 20C33.3333 16.2778 32.0417 13.125 29.4583 10.5417C26.875 7.95833 23.7222 6.66667 20 6.66667C16.2778 6.66667 13.125 7.95833 10.5417 10.5417C7.95833 13.125 6.66667 16.2778 6.66667 20C6.66667 23.7222 7.95833 26.875 10.5417 29.4583C13.125 32.0417 16.2778 33.3333 20 33.3333Z" fill="#626262"/>
</g>
</svg>
