<svg width="65" height="64" viewBox="0 0 65 64" fill="none" xmlns="http://www.w3.org/2000/svg">
<g filter="url(#filter0_d_1709_1621)">
<path fill-rule="evenodd" clip-rule="evenodd" d="M28.8507 52C42.1093 52 52.8574 41.2548 52.8574 28C52.8574 24.4808 52.0998 21.1386 50.7387 18.1273C48.0852 18.2789 45.7708 18.6107 43.57 19.3368C39.6896 20.617 35.9888 23.198 31.572 28.7457C27.0973 34.3662 20.3278 34.4778 14.4758 32.908C11.036 31.9852 7.68596 30.4362 4.85742 28.8099C5.28462 41.6898 15.8633 52 28.8507 52ZM5.1277 24.299C6.90786 12.8014 16.8512 4 28.8507 4C37.0083 4 44.2155 8.06765 48.5538 14.2848C46.3873 14.4997 44.3215 14.8768 42.3167 15.5382C37.4829 17.133 33.1815 20.302 28.4426 26.2543C25.4518 30.0109 20.7709 30.4552 15.5122 29.0446C11.7394 28.0325 8.00681 26.1326 5.1277 24.299Z" fill="#563783"/>
</g>
<defs>
<filter id="filter0_d_1709_1621" x="0.857422" y="0" width="64" height="64" filterUnits="userSpaceOnUse" color-interpolation-filters="sRGB">
<feFlood flood-opacity="0" result="BackgroundImageFix"/>
<feColorMatrix in="SourceAlpha" type="matrix" values="0 0 0 0 0 0 0 0 0 0 0 0 0 0 0 0 0 0 127 0" result="hardAlpha"/>
<feOffset dx="4" dy="4"/>
<feGaussianBlur stdDeviation="4"/>
<feComposite in2="hardAlpha" operator="out"/>
<feColorMatrix type="matrix" values="0 0 0 0 0 0 0 0 0 0 0 0 0 0 0 0 0 0 0.25 0"/>
<feBlend mode="normal" in2="BackgroundImageFix" result="effect1_dropShadow_1709_1621"/>
<feBlend mode="normal" in="SourceGraphic" in2="effect1_dropShadow_1709_1621" result="shape"/>
</filter>
</defs>
</svg>
