<svg width="16" height="16" viewBox="0 0 16 16" fill="none" xmlns="http://www.w3.org/2000/svg">
<mask id="mask0_809_460" style="mask-type:alpha" maskUnits="userSpaceOnUse" x="0" y="0" width="16" height="16">
<rect width="16" height="16" fill="#D9D9D9"/>
</mask>
<g mask="url(#mask0_809_460)">
<path d="M2.66668 13.3332C2.30001 13.3332 1.98612 13.2026 1.72501 12.9415C1.4639 12.6804 1.33334 12.3665 1.33334 11.9998V3.99984C1.33334 3.63317 1.4639 3.31928 1.72501 3.05817C1.98612 2.79706 2.30001 2.6665 2.66668 2.6665H13.3333C13.7 2.6665 14.0139 2.79706 14.275 3.05817C14.5361 3.31928 14.6667 3.63317 14.6667 3.99984V11.9998C14.6667 12.3665 14.5361 12.6804 14.275 12.9415C14.0139 13.2026 13.7 13.3332 13.3333 13.3332H2.66668ZM8.00001 8.6665L2.66668 5.33317V11.9998H13.3333V5.33317L8.00001 8.6665ZM8.00001 7.33317L13.3333 3.99984H2.66668L8.00001 7.33317ZM2.66668 5.33317V3.99984V11.9998V5.33317Z" fill="#3A3A3A"/>
</g>
</svg>
