<svg width="20" height="20" viewBox="0 0 20 20" fill="none" xmlns="http://www.w3.org/2000/svg">
<mask id="mask0_724_374" style="mask-type:alpha" maskUnits="userSpaceOnUse" x="0" y="0" width="20" height="20">
<rect width="20" height="20" fill="#D9D9D9"/>
</mask>
<g mask="url(#mask0_724_374)">
<path d="M16.229 16.7918L11.0207 11.5835C10.604 11.9307 10.1248 12.2016 9.58317 12.396C9.0415 12.5904 8.49984 12.6877 7.95817 12.6877C6.61095 12.6877 5.47567 12.2257 4.55234 11.3018C3.62845 10.3785 3.1665 9.25016 3.1665 7.91683C3.1665 6.5835 3.62845 5.45488 4.55234 4.531C5.47567 3.60766 6.604 3.146 7.93734 3.146C9.27067 3.146 10.4026 3.60766 11.3332 4.531C12.2637 5.45488 12.729 6.5835 12.729 7.91683C12.729 8.50016 12.6248 9.06266 12.4165 9.60433C12.2082 10.146 11.9373 10.6043 11.604 10.9793L16.8332 16.2085L16.229 16.7918ZM7.95817 11.8543C9.05539 11.8543 9.98595 11.476 10.7498 10.7193C11.5137 9.96211 11.8957 9.02794 11.8957 7.91683C11.8957 6.80572 11.5137 5.87155 10.7498 5.11433C9.98595 4.35766 9.05539 3.97933 7.95817 3.97933C6.84706 3.97933 5.90956 4.35766 5.14567 5.11433C4.38178 5.87155 3.99984 6.80572 3.99984 7.91683C3.99984 9.02794 4.38178 9.96211 5.14567 10.7193C5.90956 11.476 6.84706 11.8543 7.95817 11.8543Z" fill="#626262"/>
</g>
</svg>
