<svg width="16" height="16" viewBox="0 0 16 16" fill="none" xmlns="http://www.w3.org/2000/svg">
<path fill-rule="evenodd" clip-rule="evenodd" d="M5.99967 2.66671C4.15873 2.66671 2.66634 4.15909 2.66634 6.00004V6.66671C2.66634 8.50766 4.15873 10 5.99967 10H10.6663C11.0345 10 11.333 10.2985 11.333 10.6667V12.3906L11.7709 11.9527C12.7711 10.9525 13.333 9.59591 13.333 8.18143V6.00004C13.333 4.15909 11.8406 2.66671 9.99967 2.66671H5.99967ZM1.33301 6.00004C1.33301 3.42271 3.42235 1.33337 5.99967 1.33337H9.99967C12.577 1.33337 14.6663 3.42271 14.6663 6.00004V8.18143C14.6663 9.94954 13.964 11.6452 12.7137 12.8955L11.1377 14.4714C10.9471 14.6621 10.6603 14.7191 10.4112 14.616C10.1621 14.5128 9.99967 14.2697 9.99967 14V11.3334H5.99967C3.42235 11.3334 1.33301 9.24404 1.33301 6.66671V6.00004ZM5.99967 7.00004H4.66634V5.66671H5.99967V7.00004ZM8.66634 7.00004H7.33301V5.66671H8.66634V7.00004ZM11.333 7.00004H9.99967V5.66671H11.333V7.00004Z" fill="#242424" fill-opacity="0.8"/>
</svg>
