<svg width="12" height="12" viewBox="0 0 12 12" fill="none" xmlns="http://www.w3.org/2000/svg">
<path d="M6.83362 11.7828C6.68268 11.638 6.60364 11.4691 6.5965 11.276C6.58991 11.083 6.66895 10.914 6.83362 10.7692L9.20069 8.68778H0.823328C0.590051 8.68778 0.394374 8.61828 0.236295 8.47928C0.0787651 8.34075 0 8.16893 0 7.9638V0.723982C0 0.518854 0.0787651 0.346787 0.236295 0.207783C0.394374 0.0692611 0.590051 0 0.823328 0C1.0566 0 1.25228 0.0692611 1.41036 0.207783C1.56789 0.346787 1.64666 0.518854 1.64666 0.723982V7.23982H9.20069L6.81304 5.14027C6.66209 5.00754 6.58333 4.84151 6.57674 4.64217C6.56961 4.44332 6.64837 4.27149 6.81304 4.1267C6.9777 3.9819 7.17338 3.9124 7.40007 3.91819C7.62621 3.92446 7.82161 3.99397 7.98628 4.1267L11.7736 7.45701C11.8559 7.52941 11.9144 7.60784 11.949 7.69231C11.983 7.77677 12 7.86727 12 7.9638C12 8.06033 11.983 8.15083 11.949 8.23529C11.9144 8.31976 11.8559 8.39819 11.7736 8.47059L7.98628 11.8009C7.83533 11.9336 7.64679 12 7.42065 12C7.19396 12 6.99828 11.9276 6.83362 11.7828Z" fill="#A5A5A5"/>
</svg>
